<svg width="1440" height="131" viewBox="0 0 1440 131" fill="none" xmlns="http://www.w3.org/2000/svg">
<path fill-rule="evenodd" clip-rule="evenodd" d="M1957.2 44.6593C1957.2 92.7822 1983.94 72.2419 1831.5 54.636C1679.07 37.03 1507.91 108.432 1205.72 76.9367C903.524 45.4416 702.952 34.6824 451.568 34.6824C202.859 34.6824 -40.5016 58.157 -174.216 86.9133C-307.931 115.67 -299.908 160.271 -299.908 103.932C-299.908 47.5934 -299.908 0.0573739 -299.908 0.0573739L-174.216 0.0573849C-48.5244 0.0573959 202.859 0.0574179 451.568 0.0574396C702.952 0.0574616 954.336 0.0574836 1205.72 0.0575056C1454.43 0.0575273 1705.81 0.0575493 1831.5 0.0575603L1957.2 0.0575713C1957.2 0.0575713 1957.2 -3.46361 1957.2 44.6593Z" fill="#9B6AF5"/>
</svg>
