<svg width="1440" height="551" viewBox="0 0 1440 551" fill="none" xmlns="http://www.w3.org/2000/svg">
<path fill-rule="evenodd" clip-rule="evenodd" d="M-260.196 362.686C-260.196 160.539 -286.939 246.821 -134.504 320.778C17.9308 394.734 189.085 94.8005 491.281 227.1C793.476 359.399 994.048 404.595 1245.43 404.595C1494.14 404.595 1737.5 305.986 1871.22 185.191C2004.93 64.3964 1996.91 -122.959 1996.91 113.7C1996.91 350.36 1996.91 550.042 1996.91 550.042H1871.22C1745.52 550.042 1494.14 550.042 1245.43 550.042C994.048 550.042 742.664 550.042 491.281 550.042C242.571 550.042 -8.81218 550.042 -134.504 550.042H-260.196C-260.196 550.042 -260.196 564.833 -260.196 362.686Z" fill="#9B6AF5"/>
</svg>
